<svg width="33" height="30" viewBox="0 0 33 30" fill="none" xmlns="http://www.w3.org/2000/svg">
<path fill-rule="evenodd" clip-rule="evenodd" d="M5.62244 0H26.4465C29.5468 0 32.069 2.4593 32.069 5.48216V18.0058C32.069 20.7947 29.9224 23.1038 27.1553 23.4446V28.9036C27.1553 29.3472 26.8813 29.7468 26.4611 29.9164C26.322 29.9726 26.1759 30 26.0311 30C25.7384 30 25.4509 29.8887 25.2357 29.6788L18.8863 23.488L5.62244 23.4879C2.52218 23.4879 0 21.0287 0 18.0058V5.48216C0 2.4593 2.52218 0 5.62244 0ZM26.4465 21.2952C28.3067 21.2952 29.82 19.8197 29.82 18.0059V5.48225C29.82 3.66851 28.3067 2.193 26.4465 2.193H5.62244C3.76227 2.193 2.24898 3.66851 2.24898 5.48225V18.0059C2.24898 19.8197 3.76227 21.2952 5.62244 21.2952H19.3521C19.6505 21.2952 19.9364 21.4106 20.1472 21.6163L24.9063 26.2566V22.3916C24.9063 21.7862 25.4098 21.2952 26.0308 21.2952H26.4465Z" fill="#07294A"/>
</svg>
