<svg width="34" height="30" viewBox="0 0 34 30" fill="none" xmlns="http://www.w3.org/2000/svg">
<path fill-rule="evenodd" clip-rule="evenodd" d="M3.97579 17.865H1.21688C0.743922 17.865 0.310404 17.591 0.133047 17.1408C-0.0443107 16.6906 0.0542445 16.1818 0.40896 15.849L16.5091 0.328028C16.9623 -0.122164 17.7111 -0.102614 18.1644 0.347578L33.5748 15.8686C33.9098 16.2013 34.0083 16.7103 33.831 17.1408C33.6536 17.5714 33.2201 17.865 32.7472 17.865H29.397V28.8256C29.397 29.4715 28.865 30 28.2147 30H20.5292C19.8789 30 19.3468 29.4715 19.3468 28.8256V20.8009H14.4202V28.8256C14.4202 29.4715 13.8881 30 13.2378 30H5.15818C4.50787 30 3.97579 29.4715 3.97579 28.8256V17.865ZM29.9094 15.5163L17.2973 2.83327L4.13347 15.5163H5.15818C5.80849 15.5163 6.34056 16.0447 6.34056 16.6906V27.6513H12.0554V19.6265C12.0554 18.9806 12.5875 18.4522 13.2378 18.4522H20.5291C21.1794 18.4522 21.7115 18.9806 21.7115 19.6265V27.6513H27.0322V16.6906C27.0322 16.0447 27.5643 15.5163 28.2146 15.5163H29.9094Z" fill="#07294A"/>
</svg>
