<svg width="30" height="30" viewBox="0 0 30 30" fill="none" xmlns="http://www.w3.org/2000/svg">
<path fill-rule="evenodd" clip-rule="evenodd" d="M28.1662 0.315673C28.4913 0.0267949 28.9541 -0.0438918 29.3501 0.135154C29.7456 0.314553 30.0001 0.710315 30 1.14682V24.7103C30 27.627 27.6415 30 24.7427 30C21.8438 30 19.4853 27.627 19.4853 24.7102V23.1196H2.20588V24.7102C2.20588 26.4029 3.57464 27.7805 5.25733 27.7805V29.9999C2.35846 29.9999 0 27.627 0 24.7102V22.0099C0 21.3969 0.493771 20.9001 1.10297 20.9002H4.85298V1.14687C4.85298 0.710374 5.10739 0.314553 5.50296 0.135154C5.89894 -0.043538 6.36218 0.0271486 6.68679 0.315673L9.77539 3.06485L12.8677 0.282717C13.2865 -0.0942391 13.9191 -0.0942391 14.3379 0.282717L17.4265 3.06149L20.5148 0.282717C20.9335 -0.0942391 21.5666 -0.0942391 21.9854 0.282717L25.0776 3.06485L28.1662 0.315673ZM24.7427 27.7805C26.4251 27.7805 27.7942 26.4029 27.7942 24.7102V3.61012L25.8044 5.38124C25.3857 5.75371 24.7556 5.75224 24.3387 5.37717L21.2504 2.5984L18.1618 5.37717C17.743 5.75412 17.11 5.75412 16.6912 5.37717L13.603 2.59875L10.5147 5.37752C10.0982 5.75259 9.46807 5.75448 9.04894 5.38159L7.05886 3.61006V20.9001H20.5883C21.1975 20.9001 21.6913 21.3969 21.6913 22.0099V24.7102C21.6913 26.4029 23.0604 27.7805 24.7427 27.7805Z" fill="#07294A"/>
</svg>
