<svg width="24" height="24" viewBox="0 0 24 24" fill="none" xmlns="http://www.w3.org/2000/svg">
<path fill-rule="evenodd" clip-rule="evenodd" d="M11.7611 12.7451C11.8403 12.748 11.9198 12.75 12 12.75C12.0744 12.75 12.1483 12.7484 12.2221 12.7456C13.9008 12.7819 15.5519 13.2261 17.0107 14.038C17.4631 14.2897 18.0341 14.1271 18.2858 13.6747C18.5376 13.2222 18.375 12.6513 17.9226 12.3995C17.2509 12.0258 16.545 11.7178 15.8163 11.4783C17.3687 10.3145 18.375 8.46002 18.375 6.375C18.375 2.85974 15.5151 0 12 0C8.48476 0 5.62502 2.85974 5.62502 6.375C5.62502 8.4613 6.63246 10.3169 8.18648 11.4805C6.76283 11.9491 5.4269 12.678 4.25759 13.6397C2.11397 15.403 0.623496 17.8625 0.0608137 20.5651C-0.115517 21.412 0.0957869 22.2817 0.640342 22.9515C1.18215 23.6179 1.9858 24 2.84493 24H10.1719C10.6895 24 11.1094 23.5803 11.1094 23.0625C11.1094 22.5447 10.6895 22.125 10.1719 22.125H2.84493C2.44466 22.125 2.20333 21.9016 2.09493 21.7685C1.90798 21.5385 1.83565 21.2393 1.89644 20.9473C2.87001 16.2709 6.99684 12.8558 11.7611 12.7451ZM7.50001 6.375C7.50001 3.89374 9.51857 1.875 12 1.875C14.4813 1.875 16.5 3.89374 16.5 6.375C16.5 8.78156 14.6012 10.7527 12.2232 10.8695C12.1487 10.868 12.0744 10.8671 12 10.8671C11.9268 10.8671 11.8537 10.8682 11.7806 10.8695C9.40083 10.7549 7.50001 8.78284 7.50001 6.375ZM23.311 19.0869C23.7561 18.6442 24.0009 18.0557 24 17.4294C23.9991 16.8032 23.7528 16.2153 23.3064 15.7738L21.5654 14.0522C21.1972 13.688 20.6036 13.6915 20.2396 14.0596C19.8754 14.4276 19.8788 15.0212 20.2469 15.3854L21.3278 16.4542H16.101C14.0206 16.4542 12.3281 18.1467 12.3281 20.2271C12.3281 21.2344 12.715 22.1805 13.418 22.8913C14.1249 23.6063 15.0698 24 16.0781 24C16.5958 24 17.0156 23.5803 17.0156 23.0625C17.0156 22.5447 16.5958 22.125 16.0781 22.125C15.0441 22.125 14.2031 21.2736 14.2031 20.2271C14.2031 19.1807 15.0544 18.3292 16.101 18.3292H21.4138L20.2451 19.4916C19.8779 19.8567 19.8763 20.4501 20.2414 20.8173C20.4247 21.0015 20.6655 21.0938 20.9062 21.0938C21.1452 21.0938 21.3843 21.0029 21.5673 20.8209L23.311 19.0869Z" fill="#0AC7E7"/>
</svg>
