<svg width="38" height="50" viewBox="0 0 38 50" fill="none" xmlns="http://www.w3.org/2000/svg">
<path d="M3.15269 0H34.6723C36.4122 0 37.8244 1.39359 37.8244 3.11423V46.7128C37.8244 48.5299 36.4358 49.827 34.6723 49.827C33.1972 49.827 22.0173 42.9214 20.4884 42.0416C18.9582 41.1619 18.9346 41.1105 17.3364 42.0416C15.7384 42.9774 4.65612 49.827 3.15251 49.827C1.36687 49.827 0.000488281 48.5767 0.000488281 46.7128V3.11423C0.000668376 1.39359 1.41279 0 3.15269 0Z" fill="#E2574C"/>
<path d="M34.6725 0H18.9126V41.3641C19.3193 41.3609 19.7084 41.5915 20.4886 42.0415C22.0109 42.9181 33.1107 49.7724 34.6473 49.8222H34.7213C36.4612 49.7973 37.8244 48.5128 37.8244 46.7128V3.11423C37.8245 1.39359 36.4124 0 34.6725 0Z" fill="#CB4E44"/>
<path d="M31.5253 18.7536L23.2341 18.1479L18.9127 9.34253L14.5425 18.1479L6.30176 18.7536L11.8177 25.5502L10.2417 34.2512L18.9127 30.2464L27.5837 34.2512L25.9795 25.5502C25.9793 25.5504 31.5253 18.7536 31.5253 18.7536Z" fill="#EFC75E"/>
<path d="M27.5836 34.2528L25.9792 25.552L31.5252 18.7536L23.2338 18.1479L18.9126 9.34253V30.2496L27.5836 34.2528Z" fill="#D7B354"/>
</svg>
