<svg width="30" height="30" viewBox="0 0 30 30" fill="none" xmlns="http://www.w3.org/2000/svg">
<path fill-rule="evenodd" clip-rule="evenodd" d="M11.4661 27.911C12.3513 28.8402 13.4562 30 15 30C16.5061 30 17.5944 28.8782 18.4396 28.0071C18.4616 27.9845 18.4834 27.962 18.5051 27.9397C18.8826 27.4818 19.3324 27.0892 19.8367 26.7776C20.4523 26.6225 21.0892 26.5735 21.7212 26.6331C23.0528 26.6583 24.5603 26.6834 25.6093 25.6344C26.6127 24.6311 26.6104 23.2082 26.6083 21.9265C26.6082 21.8682 26.6081 21.8102 26.6081 21.7525C26.5491 21.1206 26.598 20.4837 26.7526 19.8681C27.0641 19.3637 27.4567 18.9133 27.9146 18.5364C27.9422 18.5094 27.9701 18.4821 27.9983 18.4546C28.8902 17.5828 30 16.498 30 15C30 13.5012 28.889 12.416 28.0254 11.5726C27.9987 11.5465 27.9722 11.5206 27.9459 11.4949C27.488 11.118 27.0954 10.6676 26.7839 10.1633C26.6293 9.54768 26.5804 8.91076 26.6394 8.27883L26.6396 8.26847C26.6647 6.94559 26.6932 5.44321 25.6407 4.39693C24.6313 3.39359 23.214 3.39591 21.9273 3.39801C21.8688 3.39811 21.8105 3.3982 21.7525 3.3982C21.1206 3.45721 20.4837 3.40822 19.8681 3.25371C19.3637 2.94217 18.9133 2.54959 18.5364 2.09168C18.5134 2.06796 18.4901 2.04405 18.4668 2.01998C17.5929 1.12018 16.505 0 15 0C13.4939 0 12.4055 1.12188 11.5603 1.99301C11.5384 2.01563 11.5166 2.03808 11.495 2.06033C11.1175 2.51824 10.6677 2.91082 10.1633 3.22236C9.54773 3.37752 8.91082 3.42592 8.27889 3.36686C6.94723 3.34172 5.43973 3.31658 4.39072 4.36559C3.38736 5.36894 3.3897 6.79177 3.3918 8.07348C3.3919 8.13179 3.39199 8.18981 3.39199 8.24748C3.451 8.87941 3.40201 9.51633 3.2475 10.1319C2.9359 10.6363 2.54332 11.0867 2.08541 11.4636C2.05777 11.4906 2.02986 11.5179 2.00174 11.5454C1.10982 12.4172 0 13.502 0 15C0 16.5357 1.16629 17.637 2.0686 18.4892L2.08547 18.5051C2.54338 18.882 2.93596 19.3324 3.2475 19.8367C3.40207 20.4523 3.45105 21.0892 3.39199 21.7212C3.39124 21.7612 3.39045 21.8013 3.38966 21.8416C3.36409 23.1426 3.33574 24.5856 4.35932 25.6031C5.36865 26.6064 6.78597 26.6041 8.07267 26.602C8.13123 26.6019 8.18951 26.6018 8.24748 26.6018C8.87941 26.544 9.51633 26.593 10.1319 26.7463C10.6363 27.0578 11.0867 27.4504 11.4636 27.9083L11.4661 27.911ZM11.1244 24.3467C10.3989 24.0835 9.62813 23.9661 8.8568 24.0012L8.22867 24.0075L8.21414 24.0077C7.46807 24.0203 6.46205 24.0372 6.22488 23.7688C5.98617 23.4987 5.98617 22.4937 5.98617 21.765C6.07283 20.787 5.95728 19.8008 5.64697 18.8693C5.2173 18.0182 4.61619 17.2656 3.88189 16.6583C3.31025 16.1118 2.59418 15.402 2.59418 15C2.59418 14.598 3.31031 13.8882 3.88189 13.3417C4.61619 12.7343 5.2173 11.9818 5.64697 11.1306C5.95728 10.1991 6.07225 9.21293 5.98617 8.23494L5.98593 8.22043C5.9734 7.47435 5.95651 6.46832 6.22488 6.23115C6.495 5.99244 7.5 5.99244 8.22867 5.99244C9.20666 6.07852 10.1922 5.96291 11.1244 5.65324C11.9755 5.22357 12.728 4.62246 13.3354 3.88816C13.8819 3.31652 14.5917 2.60045 14.9937 2.60045C15.3957 2.60045 16.1055 3.31658 16.652 3.88816C17.2594 4.62246 18.0119 5.22357 18.863 5.65324C19.7951 5.96291 20.7807 6.07852 21.7587 5.99244C22.5062 5.97363 23.5238 5.96104 23.7625 6.23115C24.0012 6.50127 24.0012 7.50625 24.0012 8.23492V8.23494C23.9146 9.21293 24.0301 10.1991 24.3404 11.1306C24.7701 11.9818 25.3712 12.7343 26.1055 13.3417C26.6771 13.8881 27.3932 14.5979 27.3932 14.9999C27.3932 15.402 26.6771 16.1118 26.1055 16.6583C25.3712 17.2656 24.7701 18.0182 24.3404 18.8693C24.0301 19.8008 23.9152 20.787 24.0012 21.765L24.0015 21.7795C24.014 22.5256 24.0309 23.5316 23.7625 23.7688C23.4924 24.0075 22.4874 24.0075 21.7587 24.0075H21.7587C20.7807 23.9214 19.7946 24.0364 18.863 24.3467C18.0119 24.7764 17.2594 25.3775 16.652 26.1118C16.1055 26.6834 15.3957 27.3995 14.9937 27.3995C14.5917 27.3995 13.8819 26.6834 13.3354 26.1118C12.728 25.3775 11.9755 24.7764 11.1244 24.3467Z" fill="#0AC7E7"/>
<path d="M13.7438 19.4347C13.4492 19.4353 13.1634 19.3354 12.9335 19.152L9.79284 16.6395C9.23444 16.1922 9.14461 15.3763 9.59186 14.8178C10.0391 14.2594 10.855 14.1696 11.4135 14.6169L13.6497 16.4071L18.4801 11.5767C18.9864 11.0704 19.808 11.0704 20.3142 11.5767C20.8205 12.083 20.8205 12.9046 20.3142 13.4108L14.661 19.0641C14.4166 19.304 14.0868 19.4372 13.7438 19.4347Z" fill="#0AC7E7"/>
</svg>
